<svg xmlns="http://www.w3.org/2000/svg" width="512" height="512" viewBox="0 0 512 512">
    <defs>
      <linearGradient id="g" x1="0" y1="0" x2="1" y2="1">
        <stop offset="0" stop-color="#4F46E5"/>
        <stop offset="1" stop-color="#8B5CF6"/>
      </linearGradient>
      <linearGradient id="w" x1="0" y1="0" x2="1" y2="1">
        <stop offset="0" stop-color="#ffffff"/>
        <stop offset="1" stop-color="#EDE9FE"/>
      </linearGradient>
    </defs>
    <rect x="0" y="0" width="512" height="512" rx="113" ry="113" fill="url(#g)"/>
    <path d="
    M 256 102.4
    C 299.52 212.48, 299.52 212.48, 409.6 256
    C 299.52 299.52, 299.52 299.52, 256 409.6
    C 212.48 299.52, 212.48 299.52, 102.4 256
    C 212.48 212.48, 212.48 212.48, 256 102.4 Z" fill="url(#w)"/>
    <path d="
    M 389.12 327.68
    C 407.552 370.688, 407.552 370.688, 450.56 389.12
    C 407.552 407.552, 407.552 407.552, 389.12 450.56
    C 370.688 407.552, 370.688 407.552, 327.68 389.12
    C 370.688 370.688, 370.688 370.688, 389.12 327.68 Z" fill="#ffffff" opacity="0.92"/>
  </svg>